<?xml version="1.0" encoding="utf-8" standalone="no"?>
<!DOCTYPE svg PUBLIC "-//W3C//DTD SVG 1.1//EN"
  "http://www.w3.org/Graphics/SVG/1.1/DTD/svg11.dtd">
<!-- Created with matplotlib (https://matplotlib.org/) -->
<svg height="576pt" version="1.1" viewBox="0 0 576 576" width="576pt" xmlns="http://www.w3.org/2000/svg" xmlns:xlink="http://www.w3.org/1999/xlink">
 <defs>
  <style type="text/css">
*{stroke-linecap:butt;stroke-linejoin:round;}
  </style>
 </defs>
 <g id="figure_1">
  <g id="patch_1">
   <path d="M 0 576 
L 576 576 
L 576 0 
L 0 0 
z
" style="fill:#ffffff;"/>
  </g>
  <g id="patch_2">
   <path d="M 72 512.64 
L 518.4 512.64 
L 518.4 69.12 
L 72 69.12 
z
" style="fill:#ffffff;"/>
  </g>
  <g id="pane3d_1">
   <g id="patch_3">
    <path d="M 122.313008 448.989727 
L 129.338469 443.661882 
L 128.986567 203.431935 
L 121.937307 202.595412 
" style="fill:#f2f2f2;opacity:0.5;stroke:#f2f2f2;stroke-linejoin:miter;"/>
   </g>
  </g>
  <g id="pane3d_2">
   <g id="patch_4">
    <path d="M 129.338469 443.661882 
L 431.850187 444.765089 
L 432.119012 203.258728 
L 128.986567 203.431935 
" style="fill:#e6e6e6;opacity:0.5;stroke:#e6e6e6;stroke-linejoin:miter;"/>
   </g>
  </g>
  <g id="pane3d_3">
   <g id="patch_5">
    <path d="M 122.313008 448.989727 
L 432.589058 450.150419 
L 431.850187 444.765089 
L 129.338469 443.661882 
" style="fill:#ececec;opacity:0.5;stroke:#ececec;stroke-linejoin:miter;"/>
   </g>
  </g>
  <g id="axis3d_1">
   <g id="line2d_1">
    <path d="M 122.313008 448.989727 
L 432.589058 450.150419 
" style="fill:none;stroke:#000000;stroke-linecap:square;stroke-width:0.8;"/>
   </g>
   <g id="Line3DCollection_1">
    <path d="M 141.957619 449.063214 
L 148.493939 443.731739 
L 148.181147 203.420967 
" style="fill:none;stroke:#b0b0b0;stroke-width:0.8;"/>
    <path d="M 173.681718 449.181889 
L 179.427427 443.844548 
L 179.177847 203.403256 
" style="fill:none;stroke:#b0b0b0;stroke-width:0.8;"/>
    <path d="M 205.441173 449.300696 
L 210.394525 443.957479 
L 210.208296 203.385526 
" style="fill:none;stroke:#b0b0b0;stroke-width:0.8;"/>
    <path d="M 237.236042 449.419635 
L 241.395289 444.070534 
L 241.272549 203.367776 
" style="fill:none;stroke:#b0b0b0;stroke-width:0.8;"/>
    <path d="M 269.066385 449.538707 
L 272.429774 444.183711 
L 272.37066 203.350007 
" style="fill:none;stroke:#b0b0b0;stroke-width:0.8;"/>
    <path d="M 300.932262 449.657912 
L 303.498034 444.297012 
L 303.502686 203.332218 
" style="fill:none;stroke:#b0b0b0;stroke-width:0.8;"/>
    <path d="M 332.833731 449.777251 
L 334.600124 444.410435 
L 334.668682 203.31441 
" style="fill:none;stroke:#b0b0b0;stroke-width:0.8;"/>
    <path d="M 364.770852 449.896722 
L 365.736101 444.523983 
L 365.868703 203.296583 
" style="fill:none;stroke:#b0b0b0;stroke-width:0.8;"/>
    <path d="M 396.743686 450.016327 
L 396.90602 444.637654 
L 397.102805 203.278736 
" style="fill:none;stroke:#b0b0b0;stroke-width:0.8;"/>
   </g>
   <g id="xtick_1">
    <g id="line2d_2">
     <path d="M 142.01124 449.019477 
L 141.85031 449.150743 
" style="fill:none;stroke:#000000;stroke-linecap:square;stroke-width:0.8;"/>
    </g>
    <g id="text_1">
     <!-- Smoking -->
     <defs>
      <path d="M 53.515625 70.515625 
L 53.515625 60.890625 
Q 47.90625 63.578125 42.921875 64.890625 
Q 37.9375 66.21875 33.296875 66.21875 
Q 25.25 66.21875 20.875 63.09375 
Q 16.5 59.96875 16.5 54.203125 
Q 16.5 49.359375 19.40625 46.890625 
Q 22.3125 44.4375 30.421875 42.921875 
L 36.375 41.703125 
Q 47.40625 39.59375 52.65625 34.296875 
Q 57.90625 29 57.90625 20.125 
Q 57.90625 9.515625 50.796875 4.046875 
Q 43.703125 -1.421875 29.984375 -1.421875 
Q 24.8125 -1.421875 18.96875 -0.25 
Q 13.140625 0.921875 6.890625 3.21875 
L 6.890625 13.375 
Q 12.890625 10.015625 18.65625 8.296875 
Q 24.421875 6.59375 29.984375 6.59375 
Q 38.421875 6.59375 43.015625 9.90625 
Q 47.609375 13.234375 47.609375 19.390625 
Q 47.609375 24.75 44.3125 27.78125 
Q 41.015625 30.8125 33.5 32.328125 
L 27.484375 33.5 
Q 16.453125 35.6875 11.515625 40.375 
Q 6.59375 45.0625 6.59375 53.421875 
Q 6.59375 63.09375 13.40625 68.65625 
Q 20.21875 74.21875 32.171875 74.21875 
Q 37.3125 74.21875 42.625 73.28125 
Q 47.953125 72.359375 53.515625 70.515625 
z
" id="DejaVuSans-83"/>
      <path d="M 52 44.1875 
Q 55.375 50.25 60.0625 53.125 
Q 64.75 56 71.09375 56 
Q 79.640625 56 84.28125 50.015625 
Q 88.921875 44.046875 88.921875 33.015625 
L 88.921875 0 
L 79.890625 0 
L 79.890625 32.71875 
Q 79.890625 40.578125 77.09375 44.375 
Q 74.3125 48.1875 68.609375 48.1875 
Q 61.625 48.1875 57.5625 43.546875 
Q 53.515625 38.921875 53.515625 30.90625 
L 53.515625 0 
L 44.484375 0 
L 44.484375 32.71875 
Q 44.484375 40.625 41.703125 44.40625 
Q 38.921875 48.1875 33.109375 48.1875 
Q 26.21875 48.1875 22.15625 43.53125 
Q 18.109375 38.875 18.109375 30.90625 
L 18.109375 0 
L 9.078125 0 
L 9.078125 54.6875 
L 18.109375 54.6875 
L 18.109375 46.1875 
Q 21.1875 51.21875 25.484375 53.609375 
Q 29.78125 56 35.6875 56 
Q 41.65625 56 45.828125 52.96875 
Q 50 49.953125 52 44.1875 
z
" id="DejaVuSans-109"/>
      <path d="M 30.609375 48.390625 
Q 23.390625 48.390625 19.1875 42.75 
Q 14.984375 37.109375 14.984375 27.296875 
Q 14.984375 17.484375 19.15625 11.84375 
Q 23.34375 6.203125 30.609375 6.203125 
Q 37.796875 6.203125 41.984375 11.859375 
Q 46.1875 17.53125 46.1875 27.296875 
Q 46.1875 37.015625 41.984375 42.703125 
Q 37.796875 48.390625 30.609375 48.390625 
z
M 30.609375 56 
Q 42.328125 56 49.015625 48.375 
Q 55.71875 40.765625 55.71875 27.296875 
Q 55.71875 13.875 49.015625 6.21875 
Q 42.328125 -1.421875 30.609375 -1.421875 
Q 18.84375 -1.421875 12.171875 6.21875 
Q 5.515625 13.875 5.515625 27.296875 
Q 5.515625 40.765625 12.171875 48.375 
Q 18.84375 56 30.609375 56 
z
" id="DejaVuSans-111"/>
      <path d="M 9.078125 75.984375 
L 18.109375 75.984375 
L 18.109375 31.109375 
L 44.921875 54.6875 
L 56.390625 54.6875 
L 27.390625 29.109375 
L 57.625 0 
L 45.90625 0 
L 18.109375 26.703125 
L 18.109375 0 
L 9.078125 0 
z
" id="DejaVuSans-107"/>
      <path d="M 9.421875 54.6875 
L 18.40625 54.6875 
L 18.40625 0 
L 9.421875 0 
z
M 9.421875 75.984375 
L 18.40625 75.984375 
L 18.40625 64.59375 
L 9.421875 64.59375 
z
" id="DejaVuSans-105"/>
      <path d="M 54.890625 33.015625 
L 54.890625 0 
L 45.90625 0 
L 45.90625 32.71875 
Q 45.90625 40.484375 42.875 44.328125 
Q 39.84375 48.1875 33.796875 48.1875 
Q 26.515625 48.1875 22.3125 43.546875 
Q 18.109375 38.921875 18.109375 30.90625 
L 18.109375 0 
L 9.078125 0 
L 9.078125 54.6875 
L 18.109375 54.6875 
L 18.109375 46.1875 
Q 21.34375 51.125 25.703125 53.5625 
Q 30.078125 56 35.796875 56 
Q 45.21875 56 50.046875 50.171875 
Q 54.890625 44.34375 54.890625 33.015625 
z
" id="DejaVuSans-110"/>
      <path d="M 45.40625 27.984375 
Q 45.40625 37.75 41.375 43.109375 
Q 37.359375 48.484375 30.078125 48.484375 
Q 22.859375 48.484375 18.828125 43.109375 
Q 14.796875 37.75 14.796875 27.984375 
Q 14.796875 18.265625 18.828125 12.890625 
Q 22.859375 7.515625 30.078125 7.515625 
Q 37.359375 7.515625 41.375 12.890625 
Q 45.40625 18.265625 45.40625 27.984375 
z
M 54.390625 6.78125 
Q 54.390625 -7.171875 48.1875 -13.984375 
Q 42 -20.796875 29.203125 -20.796875 
Q 24.46875 -20.796875 20.265625 -20.09375 
Q 16.0625 -19.390625 12.109375 -17.921875 
L 12.109375 -9.1875 
Q 16.0625 -11.328125 19.921875 -12.34375 
Q 23.78125 -13.375 27.78125 -13.375 
Q 36.625 -13.375 41.015625 -8.765625 
Q 45.40625 -4.15625 45.40625 5.171875 
L 45.40625 9.625 
Q 42.625 4.78125 38.28125 2.390625 
Q 33.9375 0 27.875 0 
Q 17.828125 0 11.671875 7.65625 
Q 5.515625 15.328125 5.515625 27.984375 
Q 5.515625 40.671875 11.671875 48.328125 
Q 17.828125 56 27.875 56 
Q 33.9375 56 38.28125 53.609375 
Q 42.625 51.21875 45.40625 46.390625 
L 45.40625 54.6875 
L 54.390625 54.6875 
z
" id="DejaVuSans-103"/>
     </defs>
     <g transform="translate(109.437955 497.659974)rotate(-45)scale(0.1 -0.1)">
      <use xlink:href="#DejaVuSans-83"/>
      <use x="63.476562" xlink:href="#DejaVuSans-109"/>
      <use x="160.888672" xlink:href="#DejaVuSans-111"/>
      <use x="222.070312" xlink:href="#DejaVuSans-107"/>
      <use x="279.980469" xlink:href="#DejaVuSans-105"/>
      <use x="307.763672" xlink:href="#DejaVuSans-110"/>
      <use x="371.142578" xlink:href="#DejaVuSans-103"/>
     </g>
    </g>
   </g>
   <g id="xtick_2">
    <g id="line2d_3">
     <path d="M 173.728855 449.138103 
L 173.587388 449.269515 
" style="fill:none;stroke:#000000;stroke-linecap:square;stroke-width:0.8;"/>
    </g>
    <g id="text_2">
     <!-- Diabetes -->
     <defs>
      <path d="M 19.671875 64.796875 
L 19.671875 8.109375 
L 31.59375 8.109375 
Q 46.6875 8.109375 53.6875 14.9375 
Q 60.6875 21.78125 60.6875 36.53125 
Q 60.6875 51.171875 53.6875 57.984375 
Q 46.6875 64.796875 31.59375 64.796875 
z
M 9.8125 72.90625 
L 30.078125 72.90625 
Q 51.265625 72.90625 61.171875 64.09375 
Q 71.09375 55.28125 71.09375 36.53125 
Q 71.09375 17.671875 61.125 8.828125 
Q 51.171875 0 30.078125 0 
L 9.8125 0 
z
" id="DejaVuSans-68"/>
      <path d="M 34.28125 27.484375 
Q 23.390625 27.484375 19.1875 25 
Q 14.984375 22.515625 14.984375 16.5 
Q 14.984375 11.71875 18.140625 8.90625 
Q 21.296875 6.109375 26.703125 6.109375 
Q 34.1875 6.109375 38.703125 11.40625 
Q 43.21875 16.703125 43.21875 25.484375 
L 43.21875 27.484375 
z
M 52.203125 31.203125 
L 52.203125 0 
L 43.21875 0 
L 43.21875 8.296875 
Q 40.140625 3.328125 35.546875 0.953125 
Q 30.953125 -1.421875 24.3125 -1.421875 
Q 15.921875 -1.421875 10.953125 3.296875 
Q 6 8.015625 6 15.921875 
Q 6 25.140625 12.171875 29.828125 
Q 18.359375 34.515625 30.609375 34.515625 
L 43.21875 34.515625 
L 43.21875 35.40625 
Q 43.21875 41.609375 39.140625 45 
Q 35.0625 48.390625 27.6875 48.390625 
Q 23 48.390625 18.546875 47.265625 
Q 14.109375 46.140625 10.015625 43.890625 
L 10.015625 52.203125 
Q 14.9375 54.109375 19.578125 55.046875 
Q 24.21875 56 28.609375 56 
Q 40.484375 56 46.34375 49.84375 
Q 52.203125 43.703125 52.203125 31.203125 
z
" id="DejaVuSans-97"/>
      <path d="M 48.6875 27.296875 
Q 48.6875 37.203125 44.609375 42.84375 
Q 40.53125 48.484375 33.40625 48.484375 
Q 26.265625 48.484375 22.1875 42.84375 
Q 18.109375 37.203125 18.109375 27.296875 
Q 18.109375 17.390625 22.1875 11.75 
Q 26.265625 6.109375 33.40625 6.109375 
Q 40.53125 6.109375 44.609375 11.75 
Q 48.6875 17.390625 48.6875 27.296875 
z
M 18.109375 46.390625 
Q 20.953125 51.265625 25.265625 53.625 
Q 29.59375 56 35.59375 56 
Q 45.5625 56 51.78125 48.09375 
Q 58.015625 40.1875 58.015625 27.296875 
Q 58.015625 14.40625 51.78125 6.484375 
Q 45.5625 -1.421875 35.59375 -1.421875 
Q 29.59375 -1.421875 25.265625 0.953125 
Q 20.953125 3.328125 18.109375 8.203125 
L 18.109375 0 
L 9.078125 0 
L 9.078125 75.984375 
L 18.109375 75.984375 
z
" id="DejaVuSans-98"/>
      <path d="M 56.203125 29.59375 
L 56.203125 25.203125 
L 14.890625 25.203125 
Q 15.484375 15.921875 20.484375 11.0625 
Q 25.484375 6.203125 34.421875 6.203125 
Q 39.59375 6.203125 44.453125 7.46875 
Q 49.3125 8.734375 54.109375 11.28125 
L 54.109375 2.78125 
Q 49.265625 0.734375 44.1875 -0.34375 
Q 39.109375 -1.421875 33.890625 -1.421875 
Q 20.796875 -1.421875 13.15625 6.1875 
Q 5.515625 13.8125 5.515625 26.8125 
Q 5.515625 40.234375 12.765625 48.109375 
Q 20.015625 56 32.328125 56 
Q 43.359375 56 49.78125 48.890625 
Q 56.203125 41.796875 56.203125 29.59375 
z
M 47.21875 32.234375 
Q 47.125 39.59375 43.09375 43.984375 
Q 39.0625 48.390625 32.421875 48.390625 
Q 24.90625 48.390625 20.390625 44.140625 
Q 15.875 39.890625 15.1875 32.171875 
z
" id="DejaVuSans-101"/>
      <path d="M 18.3125 70.21875 
L 18.3125 54.6875 
L 36.8125 54.6875 
L 36.8125 47.703125 
L 18.3125 47.703125 
L 18.3125 18.015625 
Q 18.3125 11.328125 20.140625 9.421875 
Q 21.96875 7.515625 27.59375 7.515625 
L 36.8125 7.515625 
L 36.8125 0 
L 27.59375 0 
Q 17.1875 0 13.234375 3.875 
Q 9.28125 7.765625 9.28125 18.015625 
L 9.28125 47.703125 
L 2.6875 47.703125 
L 2.6875 54.6875 
L 9.28125 54.6875 
L 9.28125 70.21875 
z
" id="DejaVuSans-116"/>
      <path d="M 44.28125 53.078125 
L 44.28125 44.578125 
Q 40.484375 46.53125 36.375 47.5 
Q 32.28125 48.484375 27.875 48.484375 
Q 21.1875 48.484375 17.84375 46.4375 
Q 14.5 44.390625 14.5 40.28125 
Q 14.5 37.15625 16.890625 35.375 
Q 19.28125 33.59375 26.515625 31.984375 
L 29.59375 31.296875 
Q 39.15625 29.25 43.1875 25.515625 
Q 47.21875 21.78125 47.21875 15.09375 
Q 47.21875 7.46875 41.1875 3.015625 
Q 35.15625 -1.421875 24.609375 -1.421875 
Q 20.21875 -1.421875 15.453125 -0.5625 
Q 10.6875 0.296875 5.421875 2 
L 5.421875 11.28125 
Q 10.40625 8.6875 15.234375 7.390625 
Q 20.0625 6.109375 24.8125 6.109375 
Q 31.15625 6.109375 34.5625 8.28125 
Q 37.984375 10.453125 37.984375 14.40625 
Q 37.984375 18.0625 35.515625 20.015625 
Q 33.0625 21.96875 24.703125 23.78125 
L 21.578125 24.515625 
Q 13.234375 26.265625 9.515625 29.90625 
Q 5.8125 33.546875 5.8125 39.890625 
Q 5.8125 47.609375 11.28125 51.796875 
Q 16.75 56 26.8125 56 
Q 31.78125 56 36.171875 55.265625 
Q 40.578125 54.546875 44.28125 53.078125 
z
" id="DejaVuSans-115"/>
     </defs>
     <g transform="translate(140.542756 498.442036)rotate(-45)scale(0.1 -0.1)">
      <use xlink:href="#DejaVuSans-68"/>
      <use x="77.001953" xlink:href="#DejaVuSans-105"/>
      <use x="104.785156" xlink:href="#DejaVuSans-97"/>
      <use x="166.064453" xlink:href="#DejaVuSans-98"/>
      <use x="229.541016" xlink:href="#DejaVuSans-101"/>
      <use x="291.064453" xlink:href="#DejaVuSans-116"/>
      <use x="330.273438" xlink:href="#DejaVuSans-101"/>
      <use x="391.796875" xlink:href="#DejaVuSans-115"/>
     </g>
    </g>
   </g>
   <g id="xtick_3">
    <g id="line2d_4">
     <path d="M 205.48181 449.256861 
L 205.35985 449.388419 
" style="fill:none;stroke:#000000;stroke-linecap:square;stroke-width:0.8;"/>
    </g>
    <g id="text_3">
     <!-- Obesity -->
     <defs>
      <path d="M 39.40625 66.21875 
Q 28.65625 66.21875 22.328125 58.203125 
Q 16.015625 50.203125 16.015625 36.375 
Q 16.015625 22.609375 22.328125 14.59375 
Q 28.65625 6.59375 39.40625 6.59375 
Q 50.140625 6.59375 56.421875 14.59375 
Q 62.703125 22.609375 62.703125 36.375 
Q 62.703125 50.203125 56.421875 58.203125 
Q 50.140625 66.21875 39.40625 66.21875 
z
M 39.40625 74.21875 
Q 54.734375 74.21875 63.90625 63.9375 
Q 73.09375 53.65625 73.09375 36.375 
Q 73.09375 19.140625 63.90625 8.859375 
Q 54.734375 -1.421875 39.40625 -1.421875 
Q 24.03125 -1.421875 14.8125 8.828125 
Q 5.609375 19.09375 5.609375 36.375 
Q 5.609375 53.65625 14.8125 63.9375 
Q 24.03125 74.21875 39.40625 74.21875 
z
" id="DejaVuSans-79"/>
      <path d="M 32.171875 -5.078125 
Q 28.375 -14.84375 24.75 -17.8125 
Q 21.140625 -20.796875 15.09375 -20.796875 
L 7.90625 -20.796875 
L 7.90625 -13.28125 
L 13.1875 -13.28125 
Q 16.890625 -13.28125 18.9375 -11.515625 
Q 21 -9.765625 23.484375 -3.21875 
L 25.09375 0.875 
L 2.984375 54.6875 
L 12.5 54.6875 
L 29.59375 11.921875 
L 46.6875 54.6875 
L 56.203125 54.6875 
z
" id="DejaVuSans-121"/>
     </defs>
     <g transform="translate(176.716712 494.190522)rotate(-45)scale(0.1 -0.1)">
      <use xlink:href="#DejaVuSans-79"/>
      <use x="78.710938" xlink:href="#DejaVuSans-98"/>
      <use x="142.1875" xlink:href="#DejaVuSans-101"/>
      <use x="203.710938" xlink:href="#DejaVuSans-115"/>
      <use x="255.810547" xlink:href="#DejaVuSans-105"/>
      <use x="283.59375" xlink:href="#DejaVuSans-116"/>
      <use x="322.802734" xlink:href="#DejaVuSans-121"/>
     </g>
    </g>
   </g>
   <g id="xtick_4">
    <g id="line2d_5">
     <path d="M 237.270165 449.375751 
L 237.167756 449.507457 
" style="fill:none;stroke:#000000;stroke-linecap:square;stroke-width:0.8;"/>
    </g>
    <g id="text_4">
     <!-- No Health Insurance -->
     <defs>
      <path d="M 9.8125 72.90625 
L 23.09375 72.90625 
L 55.421875 11.921875 
L 55.421875 72.90625 
L 64.984375 72.90625 
L 64.984375 0 
L 51.703125 0 
L 19.390625 60.984375 
L 19.390625 0 
L 9.8125 0 
z
" id="DejaVuSans-78"/>
      <path id="DejaVuSans-32"/>
      <path d="M 9.8125 72.90625 
L 19.671875 72.90625 
L 19.671875 43.015625 
L 55.515625 43.015625 
L 55.515625 72.90625 
L 65.375 72.90625 
L 65.375 0 
L 55.515625 0 
L 55.515625 34.71875 
L 19.671875 34.71875 
L 19.671875 0 
L 9.8125 0 
z
" id="DejaVuSans-72"/>
      <path d="M 9.421875 75.984375 
L 18.40625 75.984375 
L 18.40625 0 
L 9.421875 0 
z
" id="DejaVuSans-108"/>
      <path d="M 54.890625 33.015625 
L 54.890625 0 
L 45.90625 0 
L 45.90625 32.71875 
Q 45.90625 40.484375 42.875 44.328125 
Q 39.84375 48.1875 33.796875 48.1875 
Q 26.515625 48.1875 22.3125 43.546875 
Q 18.109375 38.921875 18.109375 30.90625 
L 18.109375 0 
L 9.078125 0 
L 9.078125 75.984375 
L 18.109375 75.984375 
L 18.109375 46.1875 
Q 21.34375 51.125 25.703125 53.5625 
Q 30.078125 56 35.796875 56 
Q 45.21875 56 50.046875 50.171875 
Q 54.890625 44.34375 54.890625 33.015625 
z
" id="DejaVuSans-104"/>
      <path d="M 9.8125 72.90625 
L 19.671875 72.90625 
L 19.671875 0 
L 9.8125 0 
z
" id="DejaVuSans-73"/>
      <path d="M 8.5 21.578125 
L 8.5 54.6875 
L 17.484375 54.6875 
L 17.484375 21.921875 
Q 17.484375 14.15625 20.5 10.265625 
Q 23.53125 6.390625 29.59375 6.390625 
Q 36.859375 6.390625 41.078125 11.03125 
Q 45.3125 15.671875 45.3125 23.6875 
L 45.3125 54.6875 
L 54.296875 54.6875 
L 54.296875 0 
L 45.3125 0 
L 45.3125 8.40625 
Q 42.046875 3.421875 37.71875 1 
Q 33.40625 -1.421875 27.6875 -1.421875 
Q 18.265625 -1.421875 13.375 4.4375 
Q 8.5 10.296875 8.5 21.578125 
z
M 31.109375 56 
z
" id="DejaVuSans-117"/>
      <path d="M 41.109375 46.296875 
Q 39.59375 47.171875 37.8125 47.578125 
Q 36.03125 48 33.890625 48 
Q 26.265625 48 22.1875 43.046875 
Q 18.109375 38.09375 18.109375 28.8125 
L 18.109375 0 
L 9.078125 0 
L 9.078125 54.6875 
L 18.109375 54.6875 
L 18.109375 46.1875 
Q 20.953125 51.171875 25.484375 53.578125 
Q 30.03125 56 36.53125 56 
Q 37.453125 56 38.578125 55.875 
Q 39.703125 55.765625 41.0625 55.515625 
z
" id="DejaVuSans-114"/>
      <path d="M 48.78125 52.59375 
L 48.78125 44.1875 
Q 44.96875 46.296875 41.140625 47.34375 
Q 37.3125 48.390625 33.40625 48.390625 
Q 24.65625 48.390625 19.8125 42.84375 
Q 14.984375 37.3125 14.984375 27.296875 
Q 14.984375 17.28125 19.8125 11.734375 
Q 24.65625 6.203125 33.40625 6.203125 
Q 37.3125 6.203125 41.140625 7.25 
Q 44.96875 8.296875 48.78125 10.40625 
L 48.78125 2.09375 
Q 45.015625 0.34375 40.984375 -0.53125 
Q 36.96875 -1.421875 32.421875 -1.421875 
Q 20.0625 -1.421875 12.78125 6.34375 
Q 5.515625 14.109375 5.515625 27.296875 
Q 5.515625 40.671875 12.859375 48.328125 
Q 20.21875 56 33.015625 56 
Q 37.15625 56 41.109375 55.140625 
Q 45.0625 54.296875 48.78125 52.59375 
z
" id="DejaVuSans-99"/>
     </defs>
     <g transform="translate(163.536966 539.328347)rotate(-45)scale(0.1 -0.1)">
      <use xlink:href="#DejaVuSans-78"/>
      <use x="74.804688" xlink:href="#DejaVuSans-111"/>
      <use x="135.986328" xlink:href="#DejaVuSans-32"/>
      <use x="167.773438" xlink:href="#DejaVuSans-72"/>
      <use x="242.96875" xlink:href="#DejaVuSans-101"/>
      <use x="304.492188" xlink:href="#DejaVuSans-97"/>
      <use x="365.771484" xlink:href="#DejaVuSans-108"/>
      <use x="393.554688" xlink:href="#DejaVuSans-116"/>
      <use x="432.763672" xlink:href="#DejaVuSans-104"/>
      <use x="496.142578" xlink:href="#DejaVuSans-32"/>
      <use x="527.929688" xlink:href="#DejaVuSans-73"/>
      <use x="557.421875" xlink:href="#DejaVuSans-110"/>
      <use x="620.800781" xlink:href="#DejaVuSans-115"/>
      <use x="672.900391" xlink:href="#DejaVuSans-117"/>
      <use x="736.279297" xlink:href="#DejaVuSans-114"/>
      <use x="777.392578" xlink:href="#DejaVuSans-97"/>
      <use x="838.671875" xlink:href="#DejaVuSans-110"/>
      <use x="902.050781" xlink:href="#DejaVuSans-99"/>
      <use x="957.03125" xlink:href="#DejaVuSans-101"/>
     </g>
    </g>
   </g>
   <g id="xtick_5">
    <g id="line2d_6">
     <path d="M 269.093979 449.494774 
L 269.011164 449.626627 
" style="fill:none;stroke:#000000;stroke-linecap:square;stroke-width:0.8;"/>
    </g>
    <g id="text_5">
     <!-- 10x Physician Density -->
     <defs>
      <path d="M 12.40625 8.296875 
L 28.515625 8.296875 
L 28.515625 63.921875 
L 10.984375 60.40625 
L 10.984375 69.390625 
L 28.421875 72.90625 
L 38.28125 72.90625 
L 38.28125 8.296875 
L 54.390625 8.296875 
L 54.390625 0 
L 12.40625 0 
z
" id="DejaVuSans-49"/>
      <path d="M 31.78125 66.40625 
Q 24.171875 66.40625 20.328125 58.90625 
Q 16.5 51.421875 16.5 36.375 
Q 16.5 21.390625 20.328125 13.890625 
Q 24.171875 6.390625 31.78125 6.390625 
Q 39.453125 6.390625 43.28125 13.890625 
Q 47.125 21.390625 47.125 36.375 
Q 47.125 51.421875 43.28125 58.90625 
Q 39.453125 66.40625 31.78125 66.40625 
z
M 31.78125 74.21875 
Q 44.046875 74.21875 50.515625 64.515625 
Q 56.984375 54.828125 56.984375 36.375 
Q 56.984375 17.96875 50.515625 8.265625 
Q 44.046875 -1.421875 31.78125 -1.421875 
Q 19.53125 -1.421875 13.0625 8.265625 
Q 6.59375 17.96875 6.59375 36.375 
Q 6.59375 54.828125 13.0625 64.515625 
Q 19.53125 74.21875 31.78125 74.21875 
z
" id="DejaVuSans-48"/>
      <path d="M 54.890625 54.6875 
L 35.109375 28.078125 
L 55.90625 0 
L 45.3125 0 
L 29.390625 21.484375 
L 13.484375 0 
L 2.875 0 
L 24.125 28.609375 
L 4.6875 54.6875 
L 15.28125 54.6875 
L 29.78125 35.203125 
L 44.28125 54.6875 
z
" id="DejaVuSans-120"/>
      <path d="M 19.671875 64.796875 
L 19.671875 37.40625 
L 32.078125 37.40625 
Q 38.96875 37.40625 42.71875 40.96875 
Q 46.484375 44.53125 46.484375 51.125 
Q 46.484375 57.671875 42.71875 61.234375 
Q 38.96875 64.796875 32.078125 64.796875 
z
M 9.8125 72.90625 
L 32.078125 72.90625 
Q 44.34375 72.90625 50.609375 67.359375 
Q 56.890625 61.8125 56.890625 51.125 
Q 56.890625 40.328125 50.609375 34.8125 
Q 44.34375 29.296875 32.078125 29.296875 
L 19.671875 29.296875 
L 19.671875 0 
L 9.8125 0 
z
" id="DejaVuSans-80"/>
     </defs>
     <g transform="translate(189.622841 545.23625)rotate(-45)scale(0.1 -0.1)">
      <use xlink:href="#DejaVuSans-49"/>
      <use x="63.623047" xlink:href="#DejaVuSans-48"/>
      <use x="127.246094" xlink:href="#DejaVuSans-120"/>
      <use x="186.425781" xlink:href="#DejaVuSans-32"/>
      <use x="218.212891" xlink:href="#DejaVuSans-80"/>
      <use x="278.515625" xlink:href="#DejaVuSans-104"/>
      <use x="341.894531" xlink:href="#DejaVuSans-121"/>
      <use x="401.074219" xlink:href="#DejaVuSans-115"/>
      <use x="453.173828" xlink:href="#DejaVuSans-105"/>
      <use x="480.957031" xlink:href="#DejaVuSans-99"/>
      <use x="535.9375" xlink:href="#DejaVuSans-105"/>
      <use x="563.720703" xlink:href="#DejaVuSans-97"/>
      <use x="625" xlink:href="#DejaVuSans-110"/>
      <use x="688.378906" xlink:href="#DejaVuSans-32"/>
      <use x="720.166016" xlink:href="#DejaVuSans-68"/>
      <use x="797.167969" xlink:href="#DejaVuSans-101"/>
      <use x="858.691406" xlink:href="#DejaVuSans-110"/>
      <use x="922.070312" xlink:href="#DejaVuSans-115"/>
      <use x="974.169922" xlink:href="#DejaVuSans-105"/>
      <use x="1001.953125" xlink:href="#DejaVuSans-116"/>
      <use x="1041.162109" xlink:href="#DejaVuSans-121"/>
     </g>
    </g>
   </g>
   <g id="xtick_6">
    <g id="line2d_7">
     <path d="M 300.953312 449.613931 
L 300.890136 449.74593 
" style="fill:none;stroke:#000000;stroke-linecap:square;stroke-width:0.8;"/>
    </g>
    <g id="text_6">
     <!-- Better Access to Exercise -->
     <defs>
      <path d="M 19.671875 34.8125 
L 19.671875 8.109375 
L 35.5 8.109375 
Q 43.453125 8.109375 47.28125 11.40625 
Q 51.125 14.703125 51.125 21.484375 
Q 51.125 28.328125 47.28125 31.5625 
Q 43.453125 34.8125 35.5 34.8125 
z
M 19.671875 64.796875 
L 19.671875 42.828125 
L 34.28125 42.828125 
Q 41.5 42.828125 45.03125 45.53125 
Q 48.578125 48.25 48.578125 53.8125 
Q 48.578125 59.328125 45.03125 62.0625 
Q 41.5 64.796875 34.28125 64.796875 
z
M 9.8125 72.90625 
L 35.015625 72.90625 
Q 46.296875 72.90625 52.390625 68.21875 
Q 58.5 63.53125 58.5 54.890625 
Q 58.5 48.1875 55.375 44.234375 
Q 52.25 40.28125 46.1875 39.3125 
Q 53.46875 37.75 57.5 32.78125 
Q 61.53125 27.828125 61.53125 20.40625 
Q 61.53125 10.640625 54.890625 5.3125 
Q 48.25 0 35.984375 0 
L 9.8125 0 
z
" id="DejaVuSans-66"/>
      <path d="M 34.1875 63.1875 
L 20.796875 26.90625 
L 47.609375 26.90625 
z
M 28.609375 72.90625 
L 39.796875 72.90625 
L 67.578125 0 
L 57.328125 0 
L 50.6875 18.703125 
L 17.828125 18.703125 
L 11.1875 0 
L 0.78125 0 
z
" id="DejaVuSans-65"/>
      <path d="M 9.8125 72.90625 
L 55.90625 72.90625 
L 55.90625 64.59375 
L 19.671875 64.59375 
L 19.671875 43.015625 
L 54.390625 43.015625 
L 54.390625 34.71875 
L 19.671875 34.71875 
L 19.671875 8.296875 
L 56.78125 8.296875 
L 56.78125 0 
L 9.8125 0 
z
" id="DejaVuSans-69"/>
     </defs>
     <g transform="translate(209.363798 557.524828)rotate(-45)scale(0.1 -0.1)">
      <use xlink:href="#DejaVuSans-66"/>
      <use x="68.603516" xlink:href="#DejaVuSans-101"/>
      <use x="130.126953" xlink:href="#DejaVuSans-116"/>
      <use x="169.335938" xlink:href="#DejaVuSans-116"/>
      <use x="208.544922" xlink:href="#DejaVuSans-101"/>
      <use x="270.068359" xlink:href="#DejaVuSans-114"/>
      <use x="311.181641" xlink:href="#DejaVuSans-32"/>
      <use x="342.96875" xlink:href="#DejaVuSans-65"/>
      <use x="411.361328" xlink:href="#DejaVuSans-99"/>
      <use x="466.341797" xlink:href="#DejaVuSans-99"/>
      <use x="521.322266" xlink:href="#DejaVuSans-101"/>
      <use x="582.845703" xlink:href="#DejaVuSans-115"/>
      <use x="634.945312" xlink:href="#DejaVuSans-115"/>
      <use x="687.044922" xlink:href="#DejaVuSans-32"/>
      <use x="718.832031" xlink:href="#DejaVuSans-116"/>
      <use x="758.041016" xlink:href="#DejaVuSans-111"/>
      <use x="819.222656" xlink:href="#DejaVuSans-32"/>
      <use x="851.009766" xlink:href="#DejaVuSans-69"/>
      <use x="914.193359" xlink:href="#DejaVuSans-120"/>
      <use x="973.326172" xlink:href="#DejaVuSans-101"/>
      <use x="1034.849609" xlink:href="#DejaVuSans-114"/>
      <use x="1075.931641" xlink:href="#DejaVuSans-99"/>
      <use x="1130.912109" xlink:href="#DejaVuSans-105"/>
      <use x="1158.695312" xlink:href="#DejaVuSans-115"/>
      <use x="1210.794922" xlink:href="#DejaVuSans-101"/>
     </g>
    </g>
   </g>
   <g id="xtick_7">
    <g id="line2d_8">
     <path d="M 332.848223 449.73322 
L 332.804729 449.865367 
" style="fill:none;stroke:#000000;stroke-linecap:square;stroke-width:0.8;"/>
    </g>
    <g id="text_7">
     <!-- Better Access to Healthy Food -->
     <defs>
      <path d="M 9.8125 72.90625 
L 51.703125 72.90625 
L 51.703125 64.59375 
L 19.671875 64.59375 
L 19.671875 43.109375 
L 48.578125 43.109375 
L 48.578125 34.8125 
L 19.671875 34.8125 
L 19.671875 0 
L 9.8125 0 
z
" id="DejaVuSans-70"/>
      <path d="M 45.40625 46.390625 
L 45.40625 75.984375 
L 54.390625 75.984375 
L 54.390625 0 
L 45.40625 0 
L 45.40625 8.203125 
Q 42.578125 3.328125 38.25 0.953125 
Q 33.9375 -1.421875 27.875 -1.421875 
Q 17.96875 -1.421875 11.734375 6.484375 
Q 5.515625 14.40625 5.515625 27.296875 
Q 5.515625 40.1875 11.734375 48.09375 
Q 17.96875 56 27.875 56 
Q 33.9375 56 38.25 53.625 
Q 42.578125 51.265625 45.40625 46.390625 
z
M 14.796875 27.296875 
Q 14.796875 17.390625 18.875 11.75 
Q 22.953125 6.109375 30.078125 6.109375 
Q 37.203125 6.109375 41.296875 11.75 
Q 45.40625 17.390625 45.40625 27.296875 
Q 45.40625 37.203125 41.296875 42.84375 
Q 37.203125 48.484375 30.078125 48.484375 
Q 22.953125 48.484375 18.875 42.84375 
Q 14.796875 37.203125 14.796875 27.296875 
z
" id="DejaVuSans-100"/>
     </defs>
     <g transform="translate(224.237088 574.716891)rotate(-45)scale(0.1 -0.1)">
      <use xlink:href="#DejaVuSans-66"/>
      <use x="68.603516" xlink:href="#DejaVuSans-101"/>
      <use x="130.126953" xlink:href="#DejaVuSans-116"/>
      <use x="169.335938" xlink:href="#DejaVuSans-116"/>
      <use x="208.544922" xlink:href="#DejaVuSans-101"/>
      <use x="270.068359" xlink:href="#DejaVuSans-114"/>
      <use x="311.181641" xlink:href="#DejaVuSans-32"/>
      <use x="342.96875" xlink:href="#DejaVuSans-65"/>
      <use x="411.361328" xlink:href="#DejaVuSans-99"/>
      <use x="466.341797" xlink:href="#DejaVuSans-99"/>
      <use x="521.322266" xlink:href="#DejaVuSans-101"/>
      <use x="582.845703" xlink:href="#DejaVuSans-115"/>
      <use x="634.945312" xlink:href="#DejaVuSans-115"/>
      <use x="687.044922" xlink:href="#DejaVuSans-32"/>
      <use x="718.832031" xlink:href="#DejaVuSans-116"/>
      <use x="758.041016" xlink:href="#DejaVuSans-111"/>
      <use x="819.222656" xlink:href="#DejaVuSans-32"/>
      <use x="851.009766" xlink:href="#DejaVuSans-72"/>
      <use x="926.205078" xlink:href="#DejaVuSans-101"/>
      <use x="987.728516" xlink:href="#DejaVuSans-97"/>
      <use x="1049.007812" xlink:href="#DejaVuSans-108"/>
      <use x="1076.791016" xlink:href="#DejaVuSans-116"/>
      <use x="1116" xlink:href="#DejaVuSans-104"/>
      <use x="1179.378906" xlink:href="#DejaVuSans-121"/>
      <use x="1238.558594" xlink:href="#DejaVuSans-32"/>
      <use x="1270.345703" xlink:href="#DejaVuSans-70"/>
      <use x="1327.818359" xlink:href="#DejaVuSans-111"/>
      <use x="1389" xlink:href="#DejaVuSans-111"/>
      <use x="1450.181641" xlink:href="#DejaVuSans-100"/>
     </g>
    </g>
   </g>
   <g id="xtick_8">
    <g id="line2d_9">
     <path d="M 364.778771 449.852642 
L 364.755004 449.984937 
" style="fill:none;stroke:#000000;stroke-linecap:square;stroke-width:0.8;"/>
    </g>
    <g id="text_8">
     <!-- Less Pollution -->
     <defs>
      <path d="M 9.8125 72.90625 
L 19.671875 72.90625 
L 19.671875 8.296875 
L 55.171875 8.296875 
L 55.171875 0 
L 9.8125 0 
z
" id="DejaVuSans-76"/>
     </defs>
     <g transform="translate(314.798805 516.256404)rotate(-45)scale(0.1 -0.1)">
      <use xlink:href="#DejaVuSans-76"/>
      <use x="55.697266" xlink:href="#DejaVuSans-101"/>
      <use x="117.220703" xlink:href="#DejaVuSans-115"/>
      <use x="169.320312" xlink:href="#DejaVuSans-115"/>
      <use x="221.419922" xlink:href="#DejaVuSans-32"/>
      <use x="253.207031" xlink:href="#DejaVuSans-80"/>
      <use x="313.462891" xlink:href="#DejaVuSans-111"/>
      <use x="374.644531" xlink:href="#DejaVuSans-108"/>
      <use x="402.427734" xlink:href="#DejaVuSans-108"/>
      <use x="430.210938" xlink:href="#DejaVuSans-117"/>
      <use x="493.589844" xlink:href="#DejaVuSans-116"/>
      <use x="532.798828" xlink:href="#DejaVuSans-105"/>
      <use x="560.582031" xlink:href="#DejaVuSans-111"/>
      <use x="621.763672" xlink:href="#DejaVuSans-110"/>
     </g>
    </g>
   </g>
   <g id="xtick_9">
    <g id="line2d_10">
     <path d="M 396.745017 449.972198 
L 396.74102 450.104641 
" style="fill:none;stroke:#000000;stroke-linecap:square;stroke-width:0.8;"/>
    </g>
    <g id="text_9">
     <!-- More Sunlight -->
     <defs>
      <path d="M 9.8125 72.90625 
L 24.515625 72.90625 
L 43.109375 23.296875 
L 61.8125 72.90625 
L 76.515625 72.90625 
L 76.515625 0 
L 66.890625 0 
L 66.890625 64.015625 
L 48.09375 14.015625 
L 38.1875 14.015625 
L 19.390625 64.015625 
L 19.390625 0 
L 9.8125 0 
z
" id="DejaVuSans-77"/>
     </defs>
     <g transform="translate(346.201538 516.99084)rotate(-45)scale(0.1 -0.1)">
      <use xlink:href="#DejaVuSans-77"/>
      <use x="86.279297" xlink:href="#DejaVuSans-111"/>
      <use x="147.460938" xlink:href="#DejaVuSans-114"/>
      <use x="188.542969" xlink:href="#DejaVuSans-101"/>
      <use x="250.066406" xlink:href="#DejaVuSans-32"/>
      <use x="281.853516" xlink:href="#DejaVuSans-83"/>
      <use x="345.330078" xlink:href="#DejaVuSans-117"/>
      <use x="408.708984" xlink:href="#DejaVuSans-110"/>
      <use x="472.087891" xlink:href="#DejaVuSans-108"/>
      <use x="499.871094" xlink:href="#DejaVuSans-105"/>
      <use x="527.654297" xlink:href="#DejaVuSans-103"/>
      <use x="591.130859" xlink:href="#DejaVuSans-104"/>
      <use x="654.509766" xlink:href="#DejaVuSans-116"/>
     </g>
    </g>
   </g>
  </g>
  <g id="axis3d_2">
   <g id="line2d_11">
    <path d="M 431.850187 444.765089 
L 432.589058 450.150419 
" style="fill:none;stroke:#000000;stroke-linecap:square;stroke-width:0.8;"/>
   </g>
  </g>
  <g id="axis3d_3">
   <g id="line2d_12">
    <path d="M 431.850187 444.765089 
L 432.119012 203.258728 
" style="fill:none;stroke:#000000;stroke-linecap:square;stroke-width:0.8;"/>
   </g>
   <g id="Line3DCollection_2">
    <path d="M 431.855552 439.944685 
L 129.331445 438.866903 
L 122.305509 444.07196 
" style="fill:none;stroke:#b0b0b0;stroke-width:0.8;"/>
    <path d="M 431.911361 389.807009 
L 129.258388 388.993808 
L 122.227515 392.921129 
" style="fill:none;stroke:#b0b0b0;stroke-width:0.8;"/>
    <path d="M 431.967218 339.626472 
L 129.185269 339.078303 
L 122.149452 341.725684 
" style="fill:none;stroke:#b0b0b0;stroke-width:0.8;"/>
    <path d="M 432.023123 289.403018 
L 129.112088 289.120334 
L 122.071321 290.485569 
" style="fill:none;stroke:#b0b0b0;stroke-width:0.8;"/>
    <path d="M 432.079075 239.136594 
L 129.038844 239.119848 
L 121.993122 239.200723 
" style="fill:none;stroke:#b0b0b0;stroke-width:0.8;"/>
   </g>
   <g id="xtick_10">
    <g id="line2d_13">
     <path d="M 429.422607 439.936017 
L 436.722064 439.962022 
" style="fill:none;stroke:#000000;stroke-linecap:square;stroke-width:0.8;"/>
    </g>
    <g id="text_10">
     <!-- 0 -->
     <g transform="translate(443.715476 447.342576)scale(0.1 -0.1)">
      <use xlink:href="#DejaVuSans-48"/>
     </g>
    </g>
   </g>
   <g id="xtick_11">
    <g id="line2d_14">
     <path d="M 429.477374 389.800469 
L 436.779957 389.82009 
" style="fill:none;stroke:#000000;stroke-linecap:square;stroke-width:0.8;"/>
    </g>
    <g id="text_11">
     <!-- 50 -->
     <defs>
      <path d="M 10.796875 72.90625 
L 49.515625 72.90625 
L 49.515625 64.59375 
L 19.828125 64.59375 
L 19.828125 46.734375 
Q 21.96875 47.46875 24.109375 47.828125 
Q 26.265625 48.1875 28.421875 48.1875 
Q 40.625 48.1875 47.75 41.5 
Q 54.890625 34.8125 54.890625 23.390625 
Q 54.890625 11.625 47.5625 5.09375 
Q 40.234375 -1.421875 26.90625 -1.421875 
Q 22.3125 -1.421875 17.546875 -0.640625 
Q 12.796875 0.140625 7.71875 1.703125 
L 7.71875 11.625 
Q 12.109375 9.234375 16.796875 8.0625 
Q 21.484375 6.890625 26.703125 6.890625 
Q 35.15625 6.890625 40.078125 11.328125 
Q 45.015625 15.765625 45.015625 23.390625 
Q 45.015625 31 40.078125 35.4375 
Q 35.15625 39.890625 26.703125 39.890625 
Q 22.75 39.890625 18.8125 39.015625 
Q 14.890625 38.140625 10.796875 36.28125 
z
" id="DejaVuSans-53"/>
     </defs>
     <g transform="translate(440.596401 397.254131)scale(0.1 -0.1)">
      <use xlink:href="#DejaVuSans-53"/>
      <use x="63.623047" xlink:href="#DejaVuSans-48"/>
     </g>
    </g>
   </g>
   <g id="xtick_12">
    <g id="line2d_15">
     <path d="M 429.532188 339.622063 
L 436.8379 339.63529 
" style="fill:none;stroke:#000000;stroke-linecap:square;stroke-width:0.8;"/>
    </g>
    <g id="text_12">
     <!-- 100 -->
     <g transform="translate(437.477378 347.122909)scale(0.1 -0.1)">
      <use xlink:href="#DejaVuSans-49"/>
      <use x="63.623047" xlink:href="#DejaVuSans-48"/>
      <use x="127.246094" xlink:href="#DejaVuSans-48"/>
     </g>
    </g>
   </g>
   <g id="xtick_13">
    <g id="line2d_16">
     <path d="M 429.587049 289.400745 
L 436.895892 289.407566 
" style="fill:none;stroke:#000000;stroke-linecap:square;stroke-width:0.8;"/>
    </g>
    <g id="text_13">
     <!-- 150 -->
     <g transform="translate(437.539659 296.948856)scale(0.1 -0.1)">
      <use xlink:href="#DejaVuSans-49"/>
      <use x="63.623047" xlink:href="#DejaVuSans-53"/>
      <use x="127.246094" xlink:href="#DejaVuSans-48"/>
     </g>
    </g>
   </g>
   <g id="xtick_14">
    <g id="line2d_17">
     <path d="M 429.641957 239.136459 
L 436.953934 239.136863 
" style="fill:none;stroke:#000000;stroke-linecap:square;stroke-width:0.8;"/>
    </g>
    <g id="text_14">
     <!-- 200 -->
     <defs>
      <path d="M 19.1875 8.296875 
L 53.609375 8.296875 
L 53.609375 0 
L 7.328125 0 
L 7.328125 8.296875 
Q 12.9375 14.109375 22.625 23.890625 
Q 32.328125 33.6875 34.8125 36.53125 
Q 39.546875 41.84375 41.421875 45.53125 
Q 43.3125 49.21875 43.3125 52.78125 
Q 43.3125 58.59375 39.234375 62.25 
Q 35.15625 65.921875 28.609375 65.921875 
Q 23.96875 65.921875 18.8125 64.3125 
Q 13.671875 62.703125 7.8125 59.421875 
L 7.8125 69.390625 
Q 13.765625 71.78125 18.9375 73 
Q 24.125 74.21875 28.421875 74.21875 
Q 39.75 74.21875 46.484375 68.546875 
Q 53.21875 62.890625 53.21875 53.421875 
Q 53.21875 48.921875 51.53125 44.890625 
Q 49.859375 40.875 45.40625 35.40625 
Q 44.1875 33.984375 37.640625 27.21875 
Q 31.109375 20.453125 19.1875 8.296875 
z
" id="DejaVuSans-50"/>
     </defs>
     <g transform="translate(437.601992 246.731915)scale(0.1 -0.1)">
      <use xlink:href="#DejaVuSans-50"/>
      <use x="63.623047" xlink:href="#DejaVuSans-48"/>
      <use x="127.246094" xlink:href="#DejaVuSans-48"/>
     </g>
    </g>
   </g>
  </g>
  <g id="axes_1">
   <g id="Poly3DCollection_1">
    <path clip-path="url(#pbb90b7fbd7)" d="M 148.081482 439.258829 
L 163.569215 439.314094 
L 163.298076 208.184941 
L 147.779921 208.192509 
z
" style="fill:#800000;"/>
    <path clip-path="url(#pbb90b7fbd7)" d="M 179.065371 439.36939 
L 194.569957 439.424715 
L 194.473559 333.367323 
L 178.95499 333.340814 
z
" style="fill:#800000;"/>
    <path clip-path="url(#pbb90b7fbd7)" d="M 210.082981 439.480071 
L 225.604448 439.535457 
L 225.555213 363.138699 
L 210.023657 363.104077 
z
" style="fill:#800000;"/>
    <path clip-path="url(#pbb90b7fbd7)" d="M 241.134366 439.590873 
L 256.672742 439.646319 
L 256.671236 435.68018 
L 241.132336 435.625812 
z
" style="fill:#800000;"/>
    <path clip-path="url(#pbb90b7fbd7)" d="M 272.219583 439.701795 
L 287.774895 439.757302 
L 287.775091 441.469506 
L 272.220006 441.413534 
z
" style="fill:#008000;"/>
    <path clip-path="url(#pbb90b7fbd7)" d="M 303.338685 439.812839 
L 318.910961 439.868406 
L 318.91061 442.200312 
L 303.338644 442.14411 
z
" style="fill:#008000;"/>
    <path clip-path="url(#pbb90b7fbd7)" d="M 334.49173 439.924003 
L 350.080998 439.979631 
L 350.079322 444.00555 
L 334.490589 443.948827 
z
" style="fill:#008000;"/>
    <path clip-path="url(#pbb90b7fbd7)" d="M 365.678772 440.035289 
L 381.285059 440.090977 
L 381.282016 444.551012 
L 365.676323 444.494109 
z
" style="fill:#008000;"/>
    <path clip-path="url(#pbb90b7fbd7)" d="M 396.899866 440.146696 
L 412.523201 440.202446 
L 412.526253 436.983853 
L 396.90249 436.92898 
z
" style="fill:#800000;"/>
    <path clip-path="url(#pbb90b7fbd7)" d="M 142.376896 443.804346 
L 158.209449 443.862111 
L 163.569215 439.314094 
L 148.081482 439.258829 
z
" style="fill:#9f0000;"/>
    <path clip-path="url(#pbb90b7fbd7)" d="M 174.050805 443.919908 
L 189.900971 443.977737 
L 194.569957 439.424715 
L 179.065371 439.36939 
z
" style="fill:#9f0000;"/>
    <path clip-path="url(#pbb90b7fbd7)" d="M 142.376896 443.804346 
L 148.081482 439.258829 
L 147.779921 208.192509 
L 142.057095 207.570085 
z
" style="fill:#ff0000;"/>
    <path clip-path="url(#pbb90b7fbd7)" d="M 174.050805 443.919908 
L 179.065371 439.36939 
L 178.95499 333.340814 
L 173.933319 335.521205 
z
" style="fill:#ff0000;"/>
    <path clip-path="url(#pbb90b7fbd7)" d="M 205.759956 444.035598 
L 221.627767 444.093492 
L 225.604448 439.535457 
L 210.082981 439.480071 
z
" style="fill:#9f0000;"/>
    <path clip-path="url(#pbb90b7fbd7)" d="M 158.209449 443.862111 
L 163.569215 439.314094 
L 163.298076 208.184941 
L 157.92144 207.562175 
z
" style="fill:#ff0000;"/>
    <path clip-path="url(#pbb90b7fbd7)" d="M 189.900971 443.977737 
L 194.569957 439.424715 
L 194.473559 333.367323 
L 189.798099 335.548915 
z
" style="fill:#ff0000;"/>
    <path clip-path="url(#pbb90b7fbd7)" d="M 205.759956 444.035598 
L 210.082981 439.480071 
L 210.023657 363.104077 
L 205.696427 365.951815 
z
" style="fill:#ff0000;"/>
    <path clip-path="url(#pbb90b7fbd7)" d="M 173.933319 335.521205 
L 189.798099 335.548915 
L 194.473559 333.367323 
L 178.95499 333.340814 
z
" style="fill:#9f0000;"/>
    <path clip-path="url(#pbb90b7fbd7)" d="M 237.50441 444.151417 
L 241.134366 439.590873 
L 241.132336 435.625812 
L 237.502209 440.097704 
z
" style="fill:#ff0000;"/>
    <path clip-path="url(#pbb90b7fbd7)" d="M 221.627767 444.093492 
L 225.604448 439.535457 
L 225.555213 363.138699 
L 221.574781 365.988006 
z
" style="fill:#ff0000;"/>
    <path clip-path="url(#pbb90b7fbd7)" d="M 237.50441 444.151417 
L 253.389894 444.209375 
L 256.672742 439.646319 
L 241.134366 439.590873 
z
" style="fill:#9f0000;"/>
    <path clip-path="url(#pbb90b7fbd7)" d="M 237.502209 440.097704 
L 253.388241 440.154535 
L 256.671236 435.68018 
L 241.132336 435.625812 
z
" style="fill:#9f0000;"/>
    <path clip-path="url(#pbb90b7fbd7)" d="M 205.696427 365.951815 
L 221.574781 365.988006 
L 225.555213 363.138699 
L 210.023657 363.104077 
z
" style="fill:#9f0000;"/>
    <path clip-path="url(#pbb90b7fbd7)" d="M 253.389894 444.209375 
L 256.672742 439.646319 
L 256.671236 435.68018 
L 253.388241 440.154535 
z
" style="fill:#ff0000;"/>
    <path clip-path="url(#pbb90b7fbd7)" d="M 142.057095 207.570085 
L 157.92144 207.562175 
L 163.298076 208.184941 
L 147.779921 208.192509 
z
" style="fill:#9f0000;"/>
    <path clip-path="url(#pbb90b7fbd7)" d="M 269.284225 444.267366 
L 272.219583 439.701795 
L 272.220006 441.413534 
L 269.284702 446.017396 
z
" style="fill:#004000;"/>
    <path clip-path="url(#pbb90b7fbd7)" d="M 269.284702 446.017396 
L 285.187651 446.075905 
L 287.775091 441.469506 
L 272.220006 441.413534 
z
" style="fill:#005000;"/>
    <path clip-path="url(#pbb90b7fbd7)" d="M 269.284225 444.267366 
L 285.187412 444.325388 
L 287.774895 439.757302 
L 272.219583 439.701795 
z
" style="fill:#005000;"/>
    <path clip-path="url(#pbb90b7fbd7)" d="M 285.187412 444.325388 
L 287.774895 439.757302 
L 287.775091 441.469506 
L 285.187651 446.075905 
z
" style="fill:#004000;"/>
    <path clip-path="url(#pbb90b7fbd7)" d="M 301.09946 444.383443 
L 303.338685 439.812839 
L 303.338644 442.14411 
L 301.099463 446.766894 
z
" style="fill:#004000;"/>
    <path clip-path="url(#pbb90b7fbd7)" d="M 301.099463 446.766894 
L 317.020058 446.825644 
L 318.91061 442.200312 
L 303.338644 442.14411 
z
" style="fill:#005000;"/>
    <path clip-path="url(#pbb90b7fbd7)" d="M 301.09946 444.383443 
L 317.020379 444.441531 
L 318.910961 439.868406 
L 303.338685 439.812839 
z
" style="fill:#005000;"/>
    <path clip-path="url(#pbb90b7fbd7)" d="M 317.020379 444.441531 
L 318.910961 439.868406 
L 318.91061 442.200312 
L 317.020058 446.825644 
z
" style="fill:#004000;"/>
    <path clip-path="url(#pbb90b7fbd7)" d="M 332.950175 444.49965 
L 334.49173 439.924003 
L 334.490589 443.948827 
L 332.949063 448.614607 
z
" style="fill:#004000;"/>
    <path clip-path="url(#pbb90b7fbd7)" d="M 332.949063 448.614607 
L 348.887184 448.673905 
L 350.079322 444.00555 
L 334.490589 443.948827 
z
" style="fill:#005000;"/>
    <path clip-path="url(#pbb90b7fbd7)" d="M 332.950175 444.49965 
L 348.888856 444.557803 
L 350.080998 439.979631 
L 334.49173 439.924003 
z
" style="fill:#005000;"/>
    <path clip-path="url(#pbb90b7fbd7)" d="M 348.888856 444.557803 
L 350.080998 439.979631 
L 350.079322 444.00555 
L 348.887184 448.673905 
z
" style="fill:#004000;"/>
    <path clip-path="url(#pbb90b7fbd7)" d="M 364.836429 444.615987 
L 365.678772 440.035289 
L 365.676323 444.494109 
L 364.833958 449.174715 
z
" style="fill:#004000;"/>
    <path clip-path="url(#pbb90b7fbd7)" d="M 364.833958 449.174715 
L 380.78981 449.234202 
L 381.282016 444.551012 
L 365.676323 444.494109 
z
" style="fill:#005000;"/>
    <path clip-path="url(#pbb90b7fbd7)" d="M 364.836429 444.615987 
L 380.792901 444.674204 
L 381.285059 440.090977 
L 365.678772 440.035289 
z
" style="fill:#005000;"/>
    <path clip-path="url(#pbb90b7fbd7)" d="M 380.792901 444.674204 
L 381.285059 440.090977 
L 381.282016 444.551012 
L 380.78981 449.234202 
z
" style="fill:#004000;"/>
    <path clip-path="url(#pbb90b7fbd7)" d="M 396.758281 444.732454 
L 396.899866 440.146696 
L 396.90249 436.92898 
L 396.760959 441.442594 
z
" style="fill:#ff0000;"/>
    <path clip-path="url(#pbb90b7fbd7)" d="M 396.758281 444.732454 
L 412.732575 444.790736 
L 412.523201 440.202446 
L 396.899866 440.146696 
z
" style="fill:#9f0000;"/>
    <path clip-path="url(#pbb90b7fbd7)" d="M 396.760959 441.442594 
L 412.735702 441.499959 
L 412.526253 436.983853 
L 396.90249 436.92898 
z
" style="fill:#9f0000;"/>
    <path clip-path="url(#pbb90b7fbd7)" d="M 412.732575 444.790736 
L 412.523201 440.202446 
L 412.526253 436.983853 
L 412.735702 441.499959 
z
" style="fill:#ff0000;"/>
    <path clip-path="url(#pbb90b7fbd7)" d="M 142.376896 443.804346 
L 158.209449 443.862111 
L 157.92144 207.562175 
L 142.057095 207.570085 
z
" style="fill:#800000;"/>
    <path clip-path="url(#pbb90b7fbd7)" d="M 174.050805 443.919908 
L 189.900971 443.977737 
L 189.798099 335.548915 
L 173.933319 335.521205 
z
" style="fill:#800000;"/>
    <path clip-path="url(#pbb90b7fbd7)" d="M 205.759956 444.035598 
L 221.627767 444.093492 
L 221.574781 365.988006 
L 205.696427 365.951815 
z
" style="fill:#800000;"/>
    <path clip-path="url(#pbb90b7fbd7)" d="M 237.50441 444.151417 
L 253.389894 444.209375 
L 253.388241 440.154535 
L 237.502209 440.097704 
z
" style="fill:#800000;"/>
    <path clip-path="url(#pbb90b7fbd7)" d="M 269.284225 444.267366 
L 285.187412 444.325388 
L 285.187651 446.075905 
L 269.284702 446.017396 
z
" style="fill:#008000;"/>
    <path clip-path="url(#pbb90b7fbd7)" d="M 301.09946 444.383443 
L 317.020379 444.441531 
L 317.020058 446.825644 
L 301.099463 446.766894 
z
" style="fill:#008000;"/>
    <path clip-path="url(#pbb90b7fbd7)" d="M 332.950175 444.49965 
L 348.888856 444.557803 
L 348.887184 448.673905 
L 332.949063 448.614607 
z
" style="fill:#008000;"/>
    <path clip-path="url(#pbb90b7fbd7)" d="M 364.836429 444.615987 
L 380.792901 444.674204 
L 380.78981 449.234202 
L 364.833958 449.174715 
z
" style="fill:#008000;"/>
    <path clip-path="url(#pbb90b7fbd7)" d="M 396.758281 444.732454 
L 412.732575 444.790736 
L 412.735702 441.499959 
L 396.760959 441.442594 
z
" style="fill:#800000;"/>
   </g>
  </g>
 </g>
 <defs>
  <clipPath id="pbb90b7fbd7">
   <rect height="443.52" width="446.4" x="72" y="69.12"/>
  </clipPath>
 </defs>
</svg>
